<svg id="Layer_1" data-name="Layer 1" xmlns="http://www.w3.org/2000/svg" viewBox="0 0 398.19 82.62"><defs><style>.cls-1,.cls-3{fill:#fff;}.cls-2{fill:none;}.cls-3{font-size:13.08px;font-family:Roboto-Bold, Roboto;font-weight:700;letter-spacing:0.08em;}.cls-4{letter-spacing:0.07em;}.cls-5{letter-spacing:0.07em;}</style></defs><title>mixpose</title><path class="cls-1" d="M97.59,20.6a22.11,22.11,0,0,0-15.28-6.49,21.52,21.52,0,0,0-13.25,3.76C60,.49,45.1.34,45.1.34,27.94-2.14,17.64,9.56,13.44,15.79a22.58,22.58,0,0,1,3.48-.53,16.62,16.62,0,0,1,12.51,4,16.65,16.65,0,0,1,12.53-4A18.55,18.55,0,0,1,53.9,20.41,17.47,17.47,0,0,1,59,33.28V57.05h-.17a23.7,23.7,0,0,1-.36,2.76c-3.11,16.25-21.6,22.71-21.6,22.71,5.69,1.18,27.62-8.73,35.42-27.64A22.47,22.47,0,0,0,81,56.76l.86,0a21.71,21.71,0,0,0,15.22-6,20.48,20.48,0,0,0,.53-30.17Zm-9.5,20.87,0,0A8.37,8.37,0,0,1,81.31,44,8.73,8.73,0,0,1,75,41.27a39.14,39.14,0,0,0-.75-8c-.15-.75-.31-1.47-.47-2.19a8.62,8.62,0,0,1,1.44-1.7,9,9,0,0,1,6.48-2.54h.19a8.88,8.88,0,0,1,8.89,8.36A8,8,0,0,1,88.09,41.47Z"/><path d="M53.9,20.41A18.55,18.55,0,0,0,42,15.26a16.65,16.65,0,0,0-12.53,4,16.62,16.62,0,0,0-12.51-4,22.58,22.58,0,0,0-3.48.53A17.36,17.36,0,0,0,5,20.4C1.69,23.66,0,28,0,33.28V57.05H13.34V32.77a5.28,5.28,0,0,1,1.24-3.7,3.5,3.5,0,0,1,2.9-1.23,5.86,5.86,0,0,1,4,1.41,3,3,0,0,1,1.26,2.55V57.05h13.4V31.8a3,3,0,0,1,1.21-2.55,6.1,6.1,0,0,1,4-1.41,3.62,3.62,0,0,1,3,1.23,5.41,5.41,0,0,1,1.3,3.7V57.05H59V33.28A17.47,17.47,0,0,0,53.9,20.41Z"/><path d="M166.58,16.16a14.9,14.9,0,0,0-12.38,4.7,14.83,14.83,0,0,0-12.37-4.7,16.37,16.37,0,0,0-10.68,4.6c-3,2.88-4.46,6.76-4.46,11.51V54.1h9.49V31.75a7.15,7.15,0,0,1,1.71-5,5.45,5.45,0,0,1,4.36-1.89,7.78,7.78,0,0,1,5.2,1.83,4.88,4.88,0,0,1,2,4.05V54.1H159V30.78a5,5,0,0,1,1.92-4.05,8,8,0,0,1,5.26-1.83,5.52,5.52,0,0,1,4.42,1.89,7.34,7.34,0,0,1,1.77,5V54.1h9.49V32.27a15.43,15.43,0,0,0-4.51-11.51A16.77,16.77,0,0,0,166.58,16.16Z"/><polygon points="184.72 12.69 187.03 12.69 191.66 12.69 193.97 12.69 193.97 5.33 184.72 5.33 184.72 12.69"/><rect x="184.72" y="16.96" width="9.24" height="37.14"/><polyline class="cls-2" points="205.82 16.96 214.05 27.73 222.01 16.96"/><polygon points="222.01 16.96 214.05 27.73 205.82 16.96 194.71 16.96 208.33 35.16 194.88 54.1 206.1 54.1 214.09 42.74 222.13 54.1 233.78 54.1 219.74 35.26 233.62 16.96 222.01 16.96"/><path class="cls-1" d="M263.75,16.1A20,20,0,0,0,249,21.64a18.31,18.31,0,0,0-6.22,13.83V65.56h9.18V51.7a20.57,20.57,0,0,0,10.61,3.2,19.91,19.91,0,0,0,14.73-5.49,18.71,18.71,0,0,0,6.2-14,18.37,18.37,0,0,0-5.8-13.51A20,20,0,0,0,263.75,16.1Zm7.1,26.84A11.1,11.1,0,0,1,262.94,46a10.38,10.38,0,0,1-7.63-3,9.93,9.93,0,0,1-3.25-7.2,10.07,10.07,0,0,1,3.24-7.7A10.33,10.33,0,0,1,262.88,25h.66a10.69,10.69,0,0,1,7.6,3.38,9.9,9.9,0,0,1-.29,14.55Z"/><path class="cls-1" d="M305.58,16a19.76,19.76,0,0,0-14.71,5.54A18.74,18.74,0,0,0,290.4,49a20,20,0,0,0,14,5.82h.8a19.83,19.83,0,0,0,13.91-5.5A18.53,18.53,0,0,0,319.58,22,20.24,20.24,0,0,0,305.58,16Zm7.17,26.84a10.23,10.23,0,0,1-8.13,3h0a10.66,10.66,0,0,1-7.6-3.31,9.84,9.84,0,0,1-3-7.39A9.57,9.57,0,0,1,297.28,28a10.92,10.92,0,0,1,7.77-3h.21a10.79,10.79,0,0,1,10.81,10.21A10,10,0,0,1,312.75,42.88Z"/><path class="cls-1" d="M354.71,37.85a11.38,11.38,0,0,0-6.29-5.6,12.73,12.73,0,0,0-4.49-.79h-5.4a3.4,3.4,0,0,1-2.38-.86,2.66,2.66,0,0,1-1-1.94l0-.22a2.8,2.8,0,0,1,0-1l0-.22a2.66,2.66,0,0,1,1-1.94,3.45,3.45,0,0,1,2.38-.86h16V16.28h-16a12.67,12.67,0,0,0-4.42.79,12,12,0,0,0-3.7,2.19,10.93,10.93,0,0,0-2.58,3.34,10.45,10.45,0,0,0-1.08,4.12,9.2,9.2,0,0,0,0,2.46,10.31,10.31,0,0,0,1.08,4.1,11,11,0,0,0,2.58,3.35,12,12,0,0,0,3.7,2.18,12.36,12.36,0,0,0,4.42.79h5.4a3.4,3.4,0,0,1,2.44.94,2.92,2.92,0,0,1,1,2.08V44s0,.06,0,.09a4.6,4.6,0,0,0-.06.52,2.77,2.77,0,0,1-1.09,1.67,3.52,3.52,0,0,1-2.29.77H327.55v8.14h16.38a12.24,12.24,0,0,0,8.26-3.14,11.5,11.5,0,0,0,2.6-3.44,9.93,9.93,0,0,0,1-4.4V42.08A10.34,10.34,0,0,0,354.71,37.85Z"/><path class="cls-1" d="M398.19,37.24V34.61c0-4.69-1.91-8.94-5.7-12.65a21,21,0,0,0-13.67-6,20.3,20.3,0,0,0-15.3,5.53,18.16,18.16,0,0,0-6.3,14.33,18.36,18.36,0,0,0,6.44,13.66,20.49,20.49,0,0,0,14,5.46H378a21.49,21.49,0,0,0,11.64-3.52,19,19,0,0,0,7-8.12h-11a10.59,10.59,0,0,1-7.51,2.67,11.7,11.7,0,0,1-7.82-2.64,9.55,9.55,0,0,1-3-4h30.9l0-.1V37.24Zm-30.6-6.6a10,10,0,0,1,2.87-3.34,12.61,12.61,0,0,1,14.75.08A10.35,10.35,0,0,1,388,30.64Z"/><rect x="278.98" y="58.26" width="93" height="24.23" rx="7.49"/><text class="cls-3" transform="translate(288.89 74.22)">STUDE<tspan class="cls-4" x="45.84" y="0">N</tspan><tspan class="cls-5" x="55.94" y="0">T</tspan><tspan x="64.98" y="0">S</tspan></text></svg>